<svg id="Capa_1" enable-background="new 0 0 512 512" height="512" viewBox="0 0 512 512" width="512" xmlns="http://www.w3.org/2000/svg"><g><g><path d="m424.906 227.735c0-22.756 14.521-47.539 7.854-68.072-6.91-21.281-33.457-32.744-46.348-50.458-13.02-17.891-15.809-46.633-33.699-59.653-17.714-12.891-45.846-6.747-67.128-13.656-20.533-6.668-39.579-28.396-62.335-28.396s-41.801 21.728-62.335 28.395c-21.281 6.91-49.414.765-67.128 13.656-17.891 13.02-20.679 41.762-33.699 59.653-12.891 17.714-39.438 29.177-46.348 50.458-6.667 20.533 7.854 45.316 7.854 68.072s-14.521 47.539-7.854 68.072c6.91 21.281 33.457 32.744 46.348 50.458 13.02 17.891 15.809 46.633 33.699 59.653 17.714 12.892 45.846 6.747 67.127 13.656 20.533 6.667 39.579 28.395 62.335 28.395s41.801-21.728 62.335-28.395c21.281-6.91 49.414-.765 67.128-13.656 17.891-13.02 20.679-41.762 33.699-59.653 12.892-17.714 39.438-29.177 46.348-50.458 6.668-20.532-7.853-45.316-7.853-68.071z" fill="#80b4fb"/><path d="m31.164 157.115c-6.913 21.299 8.145 47.007 8.145 70.62s-15.058 49.321-8.145 70.62c7.173 22.08 34.714 33.972 48.088 52.356 13.505 18.564 16.4 48.379 34.964 61.884.651.471 1.322.922 2.004 1.342-8.295-1.192-16.039-3.366-22.431-8.015-17.893-13.024-20.678-41.767-33.702-59.659-12.894-17.713-39.443-29.174-46.345-50.453-6.672-20.538 7.854-45.323 7.854-68.075s-14.527-47.538-7.854-68.075c6.913-21.279 33.451-32.74 46.345-50.453 13.024-17.893 15.809-46.636 33.702-59.66 6.392-4.648 14.136-6.823 22.431-8.015-.681.421-1.353.871-2.004 1.343-18.564 13.505-21.46 43.32-34.964 61.884-13.374 18.383-40.914 30.275-48.088 52.356z" fill="#61a2f9"/><circle cx="223.25" cy="227.735" fill="#ececec" r="156.998"/><path d="m240.402 383.801c-5.63.621-11.351.932-17.151.932-86.709 0-156.999-70.289-156.999-156.998s70.289-156.998 156.999-156.998c5.8 0 11.521.31 17.151.932-78.634 8.546-139.837 75.158-139.837 156.067 0 80.907 61.202 147.519 139.837 156.065z" fill="#dadada"/><circle cx="396.454" cy="400.938" fill="#ffd064" r="103.562"/><path d="m414.611 502.899c-5.887 1.048-11.957 1.597-18.161 1.597-57.191 0-103.558-46.367-103.558-103.558 0-57.202 46.367-103.569 103.558-103.569 6.204 0 12.274.548 18.161 1.597-48.549 8.569-85.42 50.962-85.42 101.972 0 50.999 36.871 93.392 85.42 101.961z" fill="#ffc250"/></g><g><path d="m209.927 192.573c-.026-.07-.054-.14-.082-.209-1.397-3.392-4.669-5.583-8.337-5.583-.004 0-.008 0-.011 0-3.672.004-6.943 2.203-8.335 5.601-.022.057-.046.114-.067.172l-25.123 65.963c-1.475 3.871.469 8.204 4.34 9.678 3.866 1.474 8.203-.468 9.678-4.339l4.417-11.598h30.013l4.369 11.577c1.133 3.003 3.987 4.854 7.018 4.854.88 0 1.775-.156 2.647-.485 3.875-1.462 5.831-5.79 4.368-9.665zm-17.807 44.686 9.362-24.581 9.277 24.581z"/><path d="m276.318 253.631c-.015 0-.028 0-.043 0-5.511.031-11.432.053-15.887.056v-59.405c0-4.142-3.357-7.5-7.5-7.5s-7.5 3.358-7.5 7.5v66.849c0 3.653 2.632 6.774 6.232 7.392.542.093.982.168 8.299.168 3.571 0 8.781-.018 16.439-.061 4.142-.023 7.481-3.4 7.458-7.542-.023-4.127-3.375-7.457-7.498-7.457z"/><path d="m337.54 261.188c0-4.142-3.357-7.5-7.5-7.5h-20.434v-18.148h18.374c4.143 0 7.5-3.358 7.5-7.5s-3.357-7.5-7.5-7.5h-18.374v-18.147h20.434c4.143 0 7.5-3.358 7.5-7.5s-3.357-7.5-7.5-7.5h-27.934c-4.143 0-7.5 3.358-7.5 7.5v66.295c0 4.142 3.357 7.5 7.5 7.5h27.934c4.143 0 7.5-3.358 7.5-7.5z"/><path d="m148.18 221.225c-8.354-3.082-16.122-6.44-18.361-7.422-1.586-1.232-2.348-3.151-2.05-5.225.193-1.344 1.157-4.627 5.928-6.064 9.89-2.976 18.963 4.22 19.207 4.416 3.17 2.633 7.876 2.217 10.533-.943 2.665-3.171 2.256-7.902-.915-10.567-.617-.519-15.314-12.641-33.151-7.268-8.912 2.685-15.215 9.695-16.449 18.296-1.155 8.049 2.333 15.791 9.104 20.205.331.216.679.405 1.04.566.386.172 9.574 4.263 19.924 8.08 3.138 1.157 10.326 4.455 9.323 10.07-.73 4.089-5.619 8.319-12.537 8.319-6.89 0-13.528-2.787-17.758-7.455-2.782-3.07-7.526-3.301-10.594-.521-3.069 2.782-3.303 7.525-.521 10.594 7.026 7.753 17.82 12.381 28.873 12.381 13.681 0 25.164-8.698 27.304-20.682 1.602-8.984-2.52-20.737-18.9-26.78z"/><path d="m498.446 356.953c-1.644-3.801-6.054-5.551-9.861-3.907-3.802 1.644-5.551 6.059-3.906 9.861 5.198 12.02 7.834 24.816 7.834 38.033 0 52.968-43.092 96.06-96.06 96.06s-96.061-43.092-96.061-96.06 43.093-96.06 96.061-96.06c28.524 0 55.386 12.554 73.697 34.442 2.659 3.177 7.388 3.598 10.565.94s3.598-7.388.94-10.565c-11.491-13.735-25.898-24.282-41.94-31.063.058-.171.125-.339.182-.51 4.592-14.162.812-29.132-2.845-43.608-2.386-9.449-4.64-18.373-4.64-26.785 0-8.407 2.253-17.328 4.639-26.773 3.657-14.477 7.438-29.446 2.845-43.613-4.804-14.793-16.942-24.825-28.681-34.526-7.256-5.997-14.109-11.661-18.737-18.02-4.72-6.489-8.045-14.842-11.564-23.685-5.598-14.064-11.386-28.606-23.788-37.627-12.264-8.926-27.815-9.964-42.854-10.967-9.568-.638-18.606-1.241-26.374-3.762-7.291-2.365-14.678-7.063-22.5-12.037-12.927-8.221-26.294-16.721-42.155-16.721-15.845 0-29.205 8.496-42.125 16.711-7.827 4.977-15.22 9.678-22.521 12.045-7.763 2.521-16.799 3.124-26.365 3.762-15.038 1.004-30.588 2.042-42.851 10.966-12.403 9.022-18.191 23.565-23.789 37.629-3.52 8.843-6.845 17.196-11.562 23.681-4.136 5.679-10.146 10.871-15.947 15.702-3.183 2.651-3.614 7.38-.963 10.563 2.651 3.184 7.38 3.614 10.562.963 6.524-5.434 13.325-11.331 18.476-18.401 5.828-8.013 9.662-17.646 13.37-26.961 5.03-12.638 9.781-24.575 18.678-31.046 8.761-6.375 21.518-7.227 35.024-8.128 10.06-.671 20.463-1.366 29.996-4.461 9.111-2.955 17.667-8.395 25.94-13.655 11.621-7.391 22.597-14.37 34.077-14.37 11.496 0 22.479 6.983 34.105 14.377 8.268 5.257 16.817 10.694 25.919 13.646 9.539 3.096 19.943 3.79 30.006 4.461 13.507.901 26.266 1.752 35.027 8.13 8.896 6.47 13.646 18.407 18.677 31.045 3.708 9.316 7.542 18.948 13.371 26.963 5.743 7.891 13.657 14.431 21.311 20.756 10.55 8.719 20.515 16.954 23.969 27.594 3.26 10.053.161 22.321-3.119 35.31-2.505 9.918-5.096 20.175-5.096 30.447 0 10.277 2.591 20.536 5.097 30.458 3.28 12.988 6.378 25.257 3.123 35.294-.029.088-.064.175-.094.263-9.376-2.537-19.142-3.865-29.086-3.865-7.452 0-14.734.743-21.779 2.15 8.576-20.223 13.072-42.148 13.072-64.295 0-90.705-73.794-164.498-164.498-164.498-90.705 0-164.499 73.793-164.499 164.498s73.794 164.499 164.499 164.499c22.141 0 44.066-4.495 64.294-13.07-1.406 7.044-2.149 14.325-2.149 21.777 0 3.616.18 7.19.519 10.718-.9.25-1.785.51-2.643.789-9.103 2.953-17.652 8.389-25.92 13.646-11.627 7.394-22.609 14.377-34.105 14.377-11.479 0-22.456-6.979-34.076-14.369-8.273-5.261-16.829-10.701-25.935-13.653-9.542-3.103-19.952-3.797-30.02-4.469-13.5-.9-26.251-1.75-35.008-8.125-8.896-6.47-13.646-18.407-18.677-31.045-3.708-9.315-7.542-18.948-13.373-26.965-5.744-7.887-13.655-14.424-21.307-20.746-10.553-8.72-20.52-16.957-23.972-27.604-3.265-10.051-.165-22.32 3.117-35.309 2.507-9.92 5.099-20.179 5.099-30.455 0-10.271-2.592-20.526-5.098-30.443-3.282-12.989-6.383-25.258-3.117-35.313 1.154-3.562 3.096-7.034 5.933-10.615 2.573-3.247 2.026-7.964-1.22-10.536-3.248-2.573-7.964-2.027-10.536 1.22-3.968 5.006-6.73 10.013-8.445 15.302-4.6 14.167-.816 29.139 2.843 43.618 2.387 9.443 4.641 18.363 4.641 26.768 0 8.41-2.255 17.333-4.642 26.78-3.658 14.479-7.441 29.451-2.843 43.613 4.799 14.799 16.941 24.833 28.686 34.538 7.254 5.994 14.104 11.656 18.733 18.01 4.72 6.489 8.045 14.842 11.564 23.685 5.598 14.064 11.386 28.606 23.787 37.627 12.261 8.923 27.804 9.96 42.836 10.962 9.572.639 18.613 1.241 26.385 3.769 7.299 2.367 14.691 7.067 22.519 12.044 12.92 8.216 26.28 16.711 42.125 16.711 15.861 0 29.229-8.5 42.154-16.72 7.821-4.974 15.209-9.671 22.503-12.038.157-.051.323-.096.482-.146 11.6 48.925 55.649 85.434 108.071 85.434 61.238 0 111.06-49.821 111.06-111.06-.001-15.277-3.052-30.076-9.067-43.987zm-275.198 20.28c-82.434 0-149.499-67.065-149.499-149.499s67.065-149.498 149.499-149.498 149.498 67.064 149.498 149.498c0 24.457-6.023 48.608-17.41 70.039-28.222 11.288-50.766 33.833-62.052 62.055-21.439 11.383-45.589 17.405-70.036 17.405z"/><path d="m370.084 464.398c.948.398 1.932.586 2.899.586 2.93 0 5.714-1.729 6.919-4.6l48.502-115.571c1.603-3.819-.194-8.215-4.014-9.818-3.817-1.602-8.216.194-9.818 4.013l-48.502 115.571c-1.602 3.821.195 8.217 4.014 9.819z"/><path d="m392.632 361.429c0-17.868-12.979-32.404-28.931-32.404-15.953 0-28.932 14.536-28.932 32.404s12.979 32.404 28.932 32.404 28.931-14.536 28.931-32.404zm-28.93 17.404c-7.682 0-13.932-7.807-13.932-17.404s6.25-17.404 13.932-17.404 13.931 7.807 13.931 17.404-6.25 17.404-13.931 17.404z"/><path d="m429.206 472.851c15.952 0 28.931-14.536 28.931-32.404s-12.979-32.404-28.931-32.404c-15.953 0-28.932 14.537-28.932 32.404s12.979 32.404 28.932 32.404zm0-49.808c7.682 0 13.931 7.808 13.931 17.404s-6.249 17.404-13.931 17.404-13.932-7.807-13.932-17.404 6.251-17.404 13.932-17.404z"/></g></g></svg>