<svg id="Capa_1" enable-background="new 0 0 513.645 513.645" height="512" viewBox="0 0 513.645 513.645" width="512" xmlns="http://www.w3.org/2000/svg"><g><g><path d="m426.635 116.552c0-38.797-31.452-70.249-70.249-70.249s-70.249 31.451-70.249 70.249v87.608h36v-87.608c0-18.885 15.364-34.249 34.249-34.249s34.249 15.364 34.249 34.249v84.201h34.27z" fill="#e5e1e5"/><path d="m446.638 178.36c0-7.475-6.06-13.534-13.534-13.534h-154.295c-7.475 0-13.534 6.06-13.534 13.534v152.292h181.364v-152.292z" fill="#f79595"/><path d="m376.493 221.936c1.086-2.833 1.624-5.937 1.433-9.193-.646-10.99-9.577-19.954-20.566-20.636-12.791-.794-23.412 9.345-23.412 21.965 0 2.773.523 5.42 1.459 7.864v46.941h38.676z" fill="#f37c7c"/><g><path d="m318.724 201.937c-7.211 0-13.057-5.846-13.057-13.057v-10.52c0-7.475 6.06-13.534 13.534-13.534h-40.392c-7.475 0-13.534 6.06-13.534 13.534v152.292h30.645 9.747 140.971v-128.715z" fill="#f37c7c"/><path d="m333.948 214.072c0 2.773.523 5.42 1.459 7.864v46.941h38.676l2.41-46.941c1.086-2.833 1.624-5.937 1.433-9.193-.233-3.967-1.558-7.662-3.658-10.807h-36.667c-2.305 3.48-3.653 7.649-3.653 12.136z" fill="#ee6161"/><path d="m489.041 467.342h-464.437c-9.446 0-17.103-7.657-17.103-17.103v-211.199c0-9.446 7.657-17.103 17.103-17.103h464.437c9.446 0 17.103 7.657 17.103 17.103v211.199c0 9.446-7.657 17.103-17.103 17.103z" fill="#bbec6c"/><path d="m476.145 394.473v-99.666c-23.676 0-42.87-19.194-42.87-42.87h-352.905c0 23.676-19.194 42.87-42.87 42.87v99.666c23.676 0 42.87 19.194 42.87 42.87h352.905c0-23.677 19.193-42.87 42.87-42.87z" fill="#e4f7c6"/><circle cx="256.822" cy="344.639" fill="#bbec6c" r="92.704"/></g></g><g><path d="m489.041 214.436h-34.902v-36.076c0-11.25-8.885-20.438-20.004-20.981v-38.879c0-4.143-3.357-7.5-7.5-7.5s-7.5 3.357-7.5 7.5v38.826h-20.999v-40.774c0-23.021-18.729-41.749-41.749-41.749s-41.749 18.729-41.749 41.749v40.774h-21.001v-40.774c0-34.6 28.149-62.749 62.75-62.749 24.339 0 46.689 14.283 56.942 36.388 1.743 3.758 6.206 5.391 9.959 3.648 3.758-1.743 5.392-6.202 3.648-9.959-12.7-27.384-40.394-45.077-70.55-45.077-42.871 0-77.75 34.878-77.75 77.749v40.783c-11.519.094-20.862 9.485-20.862 21.024v36.076h-183.417c-4.143 0-7.5 3.357-7.5 7.5s3.357 7.5 7.5 7.5h414.684c5.296 0 9.604 4.309 9.604 9.604v211.2c0 5.295-4.308 9.603-9.604 9.603h-464.437c-5.296 0-9.604-4.308-9.604-9.603v-211.2c0-5.295 4.308-9.604 9.604-9.604h17.791c4.143 0 7.5-3.357 7.5-7.5s-3.357-7.5-7.5-7.5h-17.791c-13.567.001-24.604 11.038-24.604 24.604v211.2c0 13.565 11.037 24.603 24.604 24.603h464.438c13.566 0 24.604-11.037 24.604-24.603v-211.2c-.001-13.566-11.039-24.603-24.605-24.603zm-159.403-97.884c0-14.749 12-26.749 26.749-26.749s26.749 12 26.749 26.749v40.774h-53.498zm-56.864 61.807c0-3.327 2.707-6.033 6.034-6.033h154.295c3.328 0 6.035 2.706 6.035 6.033v36.076h-53.683c.01-.708-.001-1.419-.043-2.132-.873-14.86-12.733-26.761-27.588-27.682-8.243-.517-16.079 2.31-22.074 7.944-5.912 5.557-9.303 13.396-9.303 21.506 0 .122.01.242.011.363h-53.685v-36.075zm68.691 36.077c-.003-.121-.017-.242-.017-.363 0-4.047 1.625-7.802 4.575-10.575 2.947-2.771 6.809-4.159 10.872-3.904 7.173.445 13.122 6.415 13.543 13.591.025.419.019.836.007 1.252h-28.98z"/><path d="m30 295.077v99.125c0 4.143 3.357 7.5 7.5 7.5 19.652 0 35.641 15.988 35.641 35.641 0 4.143 3.357 7.5 7.5 7.5h352.363c4.143 0 7.5-3.357 7.5-7.5 0-19.652 15.988-35.641 35.641-35.641 4.143 0 7.5-3.357 7.5-7.5v-99.125c0-4.143-3.357-7.5-7.5-7.5-19.652 0-35.641-15.988-35.641-35.641 0-4.143-3.357-7.5-7.5-7.5h-352.363c-4.143 0-7.5 3.357-7.5 7.5 0 19.652-15.988 35.641-35.641 35.641-4.143 0-7.5 3.358-7.5 7.5zm438.645 6.946v85.232c-21.932 3.271-39.316 20.655-42.587 42.587h-116.55c4.315-2.662 8.45-5.644 12.344-8.969 17.896-15.282 29.891-36.412 33.775-59.5.687-4.085-2.067-7.953-6.152-8.641-4.087-.683-7.953 2.067-8.641 6.152-3.301 19.619-13.501 37.583-28.723 50.581-15.388 13.14-35.023 20.376-55.289 20.376-46.981 0-85.203-38.223-85.203-85.204 0-46.969 38.201-85.181 85.165-85.202h.083c41.281.021 76.526 29.466 83.813 70.03.731 4.076 4.632 6.781 8.708 6.056 4.077-.732 6.788-4.631 6.056-8.708-5.177-28.819-22.359-52.848-45.844-67.378h116.459c3.269 21.933 20.654 39.318 42.586 42.588zm-423.645 0c21.932-3.271 39.316-20.655 42.587-42.587h116.584c-28.513 17.684-47.552 49.254-47.552 85.202 0 35.94 19.021 67.519 47.524 85.204h-116.556c-3.271-21.931-20.655-39.316-42.587-42.586z"/><path d="m298.167 317.254c4.143 0 7.5-3.357 7.5-7.5s-3.357-7.5-7.5-7.5h-33.345v-9.59c0-4.143-3.357-7.5-7.5-7.5s-7.5 3.357-7.5 7.5v9.59h-25.821c-7.024 0-12.739 5.715-12.739 12.739v22.407c0 7.024 5.715 12.739 12.739 12.739h66.666v18.561h-69.517c-4.143 0-7.5 3.357-7.5 7.5s3.357 7.5 7.5 7.5h28.672v8.443c0 4.143 3.357 7.5 7.5 7.5s7.5-3.357 7.5-7.5v-8.443h28.105c7.024 0 12.739-5.715 12.739-12.739v-23.082c0-7.024-5.715-12.739-12.739-12.739h-66.666v-17.886z"/></g></g></svg>