<?xml version="1.0" encoding="iso-8859-1"?>
<!-- Generator: Adobe Illustrator 19.0.0, SVG Export Plug-In . SVG Version: 6.00 Build 0)  -->
<svg version="1.1" id="Capa_1" xmlns="http://www.w3.org/2000/svg" xmlns:xlink="http://www.w3.org/1999/xlink" x="0px" y="0px"
	 viewBox="0 0 512 512" style="enable-background:new 0 0 512 512;" xml:space="preserve">
<polygon style="fill:#5DACFF;" points="223.649,233.212 285.569,233.212 285.569,141.291 193.169,141.291 193.169,171.292 
	255.568,171.292 255.568,203.212 193.649,203.212 193.649,295.132 286.049,295.132 286.049,265.131 223.649,265.131 "/>
<polygon style="fill:#266CB2;" points="379.407,203.212 347.488,203.212 347.488,140.812 317.487,140.812 317.487,233.212 
	379.407,233.212 379.407,295.611 409.408,295.611 409.408,140.812 379.407,140.812 "/>
<path style="fill:#FF3B7F;" d="M284.774,512h60.656V390.687h-97.659l-12.307,44.663c-39.202-9.287-74.265-29.393-101.847-56.977
	H83.402v50.213C134.936,480.123,206.133,512,284.774,512z"/>
<path style="fill:#266CB2;" d="M434.816,77.171h-21.214v21.213c0.002,0.002,0.004,0.004,0.006,0.006
	c44.102,44.103,68.391,102.739,68.391,165.109s-24.289,121.008-68.391,165.11l21.214,21.214C484.591,400.054,512,333.883,512,263.5
	s-27.409-136.555-77.178-186.323C434.82,77.175,434.818,77.173,434.816,77.171z"/>
<path style="fill:#FF6E83;" d="M121.313,264.229V166.57H0v60.656c0,78.635,31.872,149.826,83.402,201.36l50.213-50.213
	c-27.579-27.581-47.68-62.638-56.965-101.835L121.313,264.229z"/>
<path style="fill:#5DACFF;" d="M248.5,0C178.116,0,111.946,27.409,62.177,77.177L83.391,98.39
	c44.102-44.102,102.738-68.39,165.109-68.39c62.366,0,121.002,24.286,165.103,68.384l21.214-21.213C385.049,27.407,318.88,0,248.5,0
	z"/>
<g>
</g>
<g>
</g>
<g>
</g>
<g>
</g>
<g>
</g>
<g>
</g>
<g>
</g>
<g>
</g>
<g>
</g>
<g>
</g>
<g>
</g>
<g>
</g>
<g>
</g>
<g>
</g>
<g>
</g>
</svg>
